<svg xmlns="http://www.w3.org/2000/svg" xmlns:xlink="http://www.w3.org/1999/xlink" width="500" zoomAndPan="magnify" viewBox="0 0 375 374.999991" height="500" preserveAspectRatio="xMidYMid meet" version="1.0"><path fill="#282828" d="M 187.578125 0.0625 C 84.179688 0.0625 0.0585938 84.1875 0.0585938 187.582031 C 0.0585938 290.980469 84.179688 375.097656 187.578125 375.097656 C 290.976562 375.097656 375.09375 290.980469 375.09375 187.582031 C 375.09375 84.1875 290.976562 0.0625 187.578125 0.0625 Z M 187.578125 12.578125 C 284.230469 12.578125 362.578125 90.933594 362.578125 187.582031 C 362.578125 284.234375 284.230469 362.582031 187.578125 362.582031 C 90.929688 362.582031 12.578125 284.234375 12.578125 187.582031 C 12.578125 90.933594 90.929688 12.578125 187.578125 12.578125 " fill-opacity="1" fill-rule="nonzero"/><path fill="#282828" d="M 149.46875 141.804688 L 90.082031 74.660156 C 90.140625 74.59375 90.203125 74.535156 90.203125 74.535156 C 104.722656 61.765625 117.175781 77.914062 128.753906 90.363281 C 138.640625 101.003906 155.285156 118.523438 152.535156 134.484375 C 152.097656 137.113281 150.972656 139.492188 149.46875 141.804688 " fill-opacity="1" fill-rule="nonzero"/><path fill="#282828" d="M 223.4375 225.414062 L 288.898438 287.996094 C 286.582031 290.1875 282.761719 293.820312 282.578125 293.945312 C 268.121094 307.898438 245.339844 310.648438 226.503906 306.207031 C 219.621094 304.578125 212.863281 302.265625 206.414062 299.449219 C 177.0625 286.742188 149.34375 264.214844 127 240.5625 C 104.53125 216.96875 83.570312 188.054688 72.429688 158.136719 C 69.925781 151.507812 67.984375 144.621094 66.734375 137.679688 C 63.355469 118.589844 67.300781 96 82.003906 82.292969 C 82.066406 82.167969 83.695312 80.605469 85.511719 78.914062 L 145.777344 147 C 142.960938 150.695312 139.894531 154.386719 138.328125 158.582031 C 134.136719 169.652344 136.078125 180.730469 143.085938 190.246094 C 147.777344 196.566406 153.535156 203.324219 159.605469 209.644531 C 165.546875 216.027344 171.996094 222.101562 178.128906 227.171875 C 187.203125 234.679688 198.152344 237.242188 209.484375 233.613281 C 214.492188 231.988281 218.929688 228.417969 223.4375 225.414062 " fill-opacity="1" fill-rule="nonzero"/><path fill="#282828" d="M 293.09375 283.429688 L 229.132812 222.160156 C 230.757812 221.472656 232.515625 220.910156 234.261719 220.722656 C 250.351562 218.78125 266.933594 236.367188 277.003906 246.816406 C 288.082031 258.207031 302.355469 270.535156 293.09375 283.429688 " fill-opacity="1" fill-rule="nonzero"/><path fill="#282828" d="M 256.335938 193.734375 C 253.050781 193.734375 250.296875 191.171875 250.097656 187.84375 C 249.273438 173.890625 243.53125 160.632812 233.929688 150.503906 C 224.332031 140.378906 211.398438 133.933594 197.507812 132.359375 C 194.074219 131.976562 191.609375 128.867188 191.996094 125.433594 C 192.386719 122.007812 195.464844 119.550781 198.917969 119.921875 C 215.734375 121.828125 231.394531 129.632812 243.015625 141.894531 C 254.636719 154.15625 261.59375 170.210938 262.59375 187.101562 C 262.792969 190.550781 260.164062 193.515625 256.714844 193.71875 C 256.589844 193.730469 256.464844 193.734375 256.335938 193.734375 " fill-opacity="1" fill-rule="nonzero"/><path fill="#282828" d="M 295.746094 199.6875 C 292.453125 199.6875 289.695312 197.125 289.503906 193.800781 C 287.996094 168.378906 277.53125 144.21875 260.039062 125.757812 C 242.542969 107.304688 218.976562 95.558594 193.671875 92.699219 C 190.234375 92.3125 187.765625 89.210938 188.152344 85.777344 C 188.542969 82.34375 191.65625 79.855469 195.074219 80.257812 C 223.304688 83.453125 249.605469 96.554688 269.121094 117.144531 C 288.640625 137.742188 300.316406 164.699219 301.992188 193.0625 C 302.195312 196.511719 299.566406 199.476562 296.117188 199.679688 C 295.992188 199.6875 295.871094 199.6875 295.746094 199.6875 " fill-opacity="1" fill-rule="nonzero"/></svg>